<?xml version="1.0" encoding="UTF-8"?>
<svg version="1.1" xmlns="http://www.w3.org/2000/svg" width="500" height="500">
<path d="M0 0 C3.05317198 0.00318421 6.10539193 -0.02053129 9.15844727 -0.0456543 C46.96046532 -0.16556855 82.48671128 10.94666522 115.85571289 28.31567383 C116.6351123 28.71786133 117.41451172 29.12004883 118.2175293 29.53442383 C133.17578148 37.33343108 146.74380579 47.12906547 159.41430664 58.23364258 C161.66096413 60.31834147 161.66096413 60.31834147 163.85571289 61.31567383 C163.85571289 61.97567383 163.85571289 62.63567383 163.85571289 63.31567383 C164.7185791 63.69175781 164.7185791 63.69175781 165.59887695 64.07543945 C168.16012485 65.4829621 169.89628681 67.09737408 171.96508789 69.15942383 C172.71918945 69.91094727 173.47329102 70.6624707 174.25024414 71.43676758 C175.02754883 72.22180664 175.80485352 73.0068457 176.60571289 73.81567383 C177.39848633 74.60071289 178.19125977 75.38575195 179.00805664 76.19458008 C179.75700195 76.94610352 180.50594727 77.69762695 181.27758789 78.47192383 C181.96433594 79.16092773 182.65108398 79.84993164 183.35864258 80.55981445 C184.85571289 82.31567383 184.85571289 82.31567383 184.85571289 84.31567383 C185.51571289 84.31567383 186.17571289 84.31567383 186.85571289 84.31567383 C188.60974866 86.31941608 190.24100398 88.32832056 191.85571289 90.44067383 C192.34338135 91.07158936 192.8310498 91.70250488 193.33349609 92.35253906 C214.99774971 120.56474067 231.06456861 151.03124973 240.85571289 185.31567383 C241.14720215 186.3151001 241.14720215 186.3151001 241.44458008 187.3347168 C247.01058969 206.689471 248.35947024 226.30386803 248.24682617 246.35595703 C248.23074105 249.74723609 248.24678284 253.13732103 248.26586914 256.52856445 C248.28736976 276.31683773 246.50782675 295.48120016 241.10571289 314.56567383 C240.58074219 316.46760498 240.58074219 316.46760498 240.04516602 318.40795898 C235.71972622 333.77578511 230.38498118 348.20169758 222.91040039 362.30786133 C221.81539711 364.39242314 220.75552643 366.49239434 219.69946289 368.59692383 C215.15938794 377.54635175 210.07750561 385.71472782 204.04467773 393.72973633 C202.19832963 396.1925448 200.40608639 398.69415591 198.60571289 401.19067383 C197.96891602 402.06079102 197.33211914 402.9309082 196.67602539 403.82739258 C195.47469372 405.46955626 194.28177476 407.11791179 193.09790039 408.77270508 C192.29739258 409.87678711 192.29739258 409.87678711 191.48071289 411.00317383 C190.78848633 411.96803711 190.78848633 411.96803711 190.08227539 412.95239258 C189.67750977 413.40227539 189.27274414 413.8521582 188.85571289 414.31567383 C188.19571289 414.31567383 187.53571289 414.31567383 186.85571289 414.31567383 C186.85571289 414.97567383 186.85571289 415.63567383 186.85571289 416.31567383 C186.19571289 416.31567383 185.53571289 416.31567383 184.85571289 416.31567383 C184.59016602 416.89704102 184.32461914 417.4784082 184.05102539 418.07739258 C179.91289261 425.82624906 171.84776082 433.66520404 163.85571289 437.31567383 C163.85571289 437.97567383 163.85571289 438.63567383 163.85571289 439.31567383 C161.8519879 441.06969449 159.84297735 442.70088607 157.73071289 444.31567383 C156.78651489 445.04608887 156.78651489 445.04608887 155.82324219 445.79125977 C142.15720926 456.29182964 128.11697673 465.87379356 112.79321289 473.81567383 C111.7062915 474.37955811 110.61937012 474.94344238 109.49951172 475.52441406 C100.49373783 480.12444745 91.39251222 483.97906563 81.85571289 487.31567383 C80.87860352 487.67661133 79.90149414 488.03754883 78.89477539 488.40942383 C72.38101177 490.72376964 65.70671573 492.54975659 59.04321289 494.37817383 C58.18574463 494.6238208 57.32827637 494.86946777 56.44482422 495.12255859 C38.53956991 499.89270896 20.08656989 500.81556089 1.64941406 500.70678711 C-1.57717232 500.69069684 -4.80250359 500.70675688 -8.02905273 500.72583008 C-38.23314445 500.75790877 -65.9572935 494.96630699 -94.14428711 484.31567383 C-95.20260742 483.91864258 -96.26092773 483.52161133 -97.35131836 483.11254883 C-111.18380862 477.61824501 -124.87839776 470.74847275 -137.14428711 462.31567383 C-138.37286259 461.49707753 -139.60207969 460.67944372 -140.83178711 459.86254883 C-147.97162991 455.08007019 -154.90514233 450.08738648 -161.64428711 444.75317383 C-162.62413574 443.98420776 -162.62413574 443.98420776 -163.6237793 443.19970703 C-165.17129392 441.95393679 -166.66403784 440.64066707 -168.14428711 439.31567383 C-168.14428711 438.65567383 -168.14428711 437.99567383 -168.14428711 437.31567383 C-168.7050293 437.07075195 -169.26577148 436.82583008 -169.84350586 436.57348633 C-177.23012664 432.53529975 -184.21930604 425.1160616 -189.14428711 418.31567383 C-189.14428711 417.65567383 -189.14428711 416.99567383 -189.14428711 416.31567383 C-190.01827148 415.95989258 -190.01827148 415.95989258 -190.90991211 415.59692383 C-193.61981548 414.04299322 -195.00959513 412.29637951 -196.89428711 409.81567383 C-197.50788086 409.02161133 -198.12147461 408.22754883 -198.75366211 407.40942383 C-200.14428711 405.31567383 -200.14428711 405.31567383 -200.14428711 403.31567383 C-200.80428711 403.31567383 -201.46428711 403.31567383 -202.14428711 403.31567383 C-203.79760058 401.07599324 -205.32802975 398.84073641 -206.83178711 396.50317383 C-207.28312012 395.81030273 -207.73445313 395.11743164 -208.19946289 394.40356445 C-209.10788151 393.00679397 -210.01351741 391.60820946 -210.91625977 390.20776367 C-211.90418599 388.68561093 -212.91686113 387.17953556 -213.93725586 385.67895508 C-229.14492833 362.96132089 -239.12626591 337.41001239 -246.33178711 311.19067383 C-246.68853516 309.95232788 -246.68853516 309.95232788 -247.05249023 308.68896484 C-251.85653573 290.56109427 -252.64566251 271.63167989 -252.53540039 252.97900391 C-252.51927278 249.7503043 -252.5353952 246.52285252 -252.55444336 243.29418945 C-252.57358173 225.2689164 -251.35466241 207.10823905 -246.39428711 189.69067383 C-246.13534668 188.7501416 -245.87640625 187.80960938 -245.60961914 186.84057617 C-244.81134911 183.99152037 -243.98309663 181.15302951 -243.14428711 178.31567383 C-242.89195312 177.44233398 -242.63961914 176.56899414 -242.37963867 175.66918945 C-235.06435894 150.72003722 -222.71974045 127.30528087 -208.20678711 105.81567383 C-207.63839111 104.97085449 -207.06999512 104.12603516 -206.484375 103.25561523 C-205.68374634 102.09425049 -205.68374634 102.09425049 -204.86694336 100.90942383 C-204.3900708 100.21526367 -203.91319824 99.52110352 -203.421875 98.8059082 C-203.000271 98.31413086 -202.57866699 97.82235352 -202.14428711 97.31567383 C-201.48428711 97.31567383 -200.82428711 97.31567383 -200.14428711 97.31567383 C-199.76336914 96.47456055 -199.76336914 96.47456055 -199.37475586 95.61645508 C-195.77492551 88.88534372 -190.18369407 83.15827784 -184.72241211 77.89379883 C-182.92330404 76.14882 -182.92330404 76.14882 -180.70678711 73.31567383 C-178.10654802 70.27149148 -175.37042757 67.77261172 -172.33178711 65.18286133 C-169.24535793 62.54837356 -166.23955831 59.8258098 -163.22241211 57.11254883 C-157.67472189 52.31567383 -157.67472189 52.31567383 -155.14428711 52.31567383 C-155.14428711 51.65567383 -155.14428711 50.99567383 -155.14428711 50.31567383 C-153.2902832 48.81030273 -153.2902832 48.81030273 -150.66772461 47.04223633 C-149.69802734 46.38803711 -148.72833008 45.73383789 -147.72924805 45.05981445 C-146.66996094 44.36049805 -145.61067383 43.66118164 -144.51928711 42.94067383 C-143.43421875 42.22331055 -142.34915039 41.50594727 -141.23120117 40.7668457 C-120.14401615 26.94656511 -98.2037506 16.77222996 -74.14428711 9.31567383 C-72.99831055 8.95731445 -71.85233398 8.59895508 -70.67163086 8.22973633 C-47.61442024 1.3151726 -23.94577598 -0.05197652 0 0 Z " fill="#F3F8FB" transform="translate(252.144287109375,-0.315673828125)"/>
<path d="M0 0 C1.10480713 0.00346436 2.20961426 0.00692871 3.34790039 0.01049805 C11.56498604 0.11973731 18.9052006 0.98169825 26.8125 3.3125 C27.62460937 3.50585938 28.43671875 3.69921875 29.2734375 3.8984375 C42.79859411 7.35836128 55.21550568 14.36937184 65.8125 23.3125 C66.68390625 24.0446875 67.5553125 24.776875 68.453125 25.53125 C87.01061379 41.69789668 101.59473866 63.4121068 104.125 88.3984375 C104.49953978 97.50443579 102.39616245 105.48081975 96.6875 112.6875 C92.08198736 117.54222869 84.68664466 122.01272293 77.85725403 122.43275452 C77.11779037 122.43053391 76.37832672 122.42831329 75.61645508 122.42602539 C74.76410278 122.42590454 73.91175049 122.42578369 73.03356934 122.42565918 C72.14206177 122.42054321 71.2505542 122.41542725 70.33203125 122.41015625 C69.50940796 122.40914917 68.68678467 122.40814209 67.8392334 122.40710449 C64.76780808 122.40187449 61.69640263 122.38791322 58.625 122.375 C51.756875 122.354375 44.88875 122.33375 37.8125 122.3125 C37.8125 136.8325 37.8125 151.3525 37.8125 166.3125 C39.7925 166.3125 41.7725 166.3125 43.8125 166.3125 C46.19140625 167.5546875 46.19140625 167.5546875 48.375 169.1875 C53.59560743 173.04014078 57.85695846 174.46345239 64.3125 175.125 C77.76191717 176.72777152 90.94420055 180.21012309 103.8125 184.375 C104.54766846 184.60799805 105.28283691 184.84099609 106.0402832 185.08105469 C110.30117329 186.52014674 113.61653081 188.11653081 116.8125 191.3125 C117.42560123 195.12735211 117.52526034 197.25557963 115.33763981 200.49950409 C111.60157606 203.18191726 108.34320412 202.86719235 103.84776306 202.82043457 C102.93174633 202.82667453 102.0157296 202.8329145 101.07195479 202.83934355 C97.99554508 202.85532745 94.91992177 202.8426481 91.84350586 202.83007812 C89.6409102 202.8354968 87.43831817 202.84261801 85.23573303 202.85131836 C79.24826605 202.86958376 73.26107416 202.86247107 67.27360225 202.84980202 C61.01561017 202.83969234 54.75764203 202.84906192 48.49964905 202.85534668 C37.31694363 202.86309519 26.13433944 202.85064671 14.95165826 202.83030933 C4.80844898 202.81243371 -5.33457722 202.81554582 -15.4777832 202.83398438 C-27.25338984 202.85538028 -39.02890727 202.86336429 -50.8045339 202.85153532 C-57.03929539 202.84528907 -63.2739307 202.84449597 -69.50868416 202.85768127 C-75.36839333 202.8692074 -81.22775558 202.86127319 -87.08742714 202.83810425 C-89.24215365 202.83280008 -91.3969092 202.83435991 -93.5516243 202.84315491 C-96.48473043 202.85402637 -99.41671289 202.84044866 -102.3497467 202.82043457 C-103.20985212 202.82935746 -104.06995753 202.83828034 -104.95612675 202.84747362 C-110.67809476 202.7713231 -110.67809476 202.7713231 -113.20470333 200.49559784 C-114.71058221 197.15057131 -114.75910402 194.93265878 -114.1875 191.3125 C-109.72188795 186.74843351 -105.38844956 184.99687381 -99.3125 183.3125 C-98.45261475 183.06467773 -97.59272949 182.81685547 -96.70678711 182.56152344 C-83.5953569 178.89467824 -70.15347293 175.94554686 -56.625 174.375 C-52.51458365 173.827306 -50.46564382 173.09220594 -47.5 170.1875 C-44.1875 167.3125 -44.1875 167.3125 -34.1875 167.3125 C-34.1875 152.4625 -34.1875 137.6125 -34.1875 122.3125 C-47.32039673 122.39139895 -47.32039673 122.39139895 -60.453125 122.49267578 C-62.1145807 122.49852375 -63.7760393 122.50361859 -65.4375 122.5078125 C-66.28183594 122.51804443 -67.12617188 122.52827637 -67.99609375 122.53881836 C-77.38760979 122.54154845 -84.55293511 120.82116839 -91.48828125 114.07421875 C-99.64916305 105.49683261 -100.69178635 98.05965872 -100.42578125 86.58203125 C-99.45766963 64.89728483 -85.21219161 44.1355179 -70.1875 29.3125 C-55.98413848 16.3442134 -39.85950046 6.96526181 -21.1875 2.3125 C-20.52468018 2.13227295 -19.86186035 1.9520459 -19.17895508 1.76635742 C-12.77935839 0.14641663 -6.58065664 -0.03346012 0 0 Z " fill="#112235" transform="translate(248.1875,172.6875)"/>
<path d="M0 0 C2.66526335 0.02375545 5.32952914 0.02050917 7.99487305 0.01391602 C21.01754407 0.03411684 33.47997471 0.95904778 46.03198242 4.71118164 C46.79236816 4.93249756 47.55275391 5.15381348 48.33618164 5.38183594 C49.85297355 5.82504605 51.36865312 6.27208515 52.88305664 6.72338867 C54.72849248 7.26540177 56.58470592 7.77042058 58.44213867 8.26977539 C67.56960242 10.81460729 75.6577326 14.8794423 83.96948242 19.33618164 C84.64446777 19.69373535 85.31945312 20.05128906 86.01489258 20.41967773 C124.76165393 41.05179401 155.22298745 74.12062442 171.03198242 115.27368164 C171.48093872 116.40821777 171.48093872 116.40821777 171.93896484 117.56567383 C173.96849304 123.12758946 174.68806656 128.42651429 173.96948242 134.33618164 C171.80023223 138.75502463 169.5175905 141.38699247 164.96948242 143.33618164 C161.04187323 143.92114471 159.31488301 143.51904078 155.78198242 141.64868164 C151.30674586 137.96904269 149.71615072 134.02323165 148.21948242 128.52368164 C144.32610731 115.47202642 138.58781878 103.63382817 130.96948242 92.33618164 C130.35073242 91.3990332 129.73198242 90.46188477 129.09448242 89.49633789 C114.71311232 69.01973866 95.01138626 53.70857398 72.96948242 42.33618164 C72.35105469 42.01665527 71.73262695 41.69712891 71.09545898 41.36791992 C38.23646362 24.65891989 0.76505373 20.27806718 -35.03051758 29.33618164 C-35.82006836 29.53405273 -36.60961914 29.73192383 -37.4230957 29.93579102 C-46.34996547 32.23637713 -54.77584174 35.19644931 -63.03051758 39.33618164 C-64.47297852 40.01293945 -64.47297852 40.01293945 -65.94458008 40.70336914 C-81.94369607 48.35152536 -95.20861595 59.27062815 -108.03051758 71.33618164 C-109.00504883 72.22950195 -109.00504883 72.22950195 -109.99926758 73.14086914 C-125.68754147 88.01512882 -136.63651537 108.45176321 -143.15551758 128.83618164 C-144.90750999 134.31115794 -146.93233175 138.23799581 -151.03051758 142.33618164 C-154.74190116 142.90394563 -158.31782059 142.88263921 -162.03051758 142.33618164 C-165.15551758 139.89868164 -165.15551758 139.89868164 -167.03051758 137.33618164 C-167.36051758 137.00618164 -167.69051758 136.67618164 -168.03051758 136.33618164 C-171.28303064 114.49259961 -154.11840243 89.28090664 -141.84301758 72.52368164 C-114.8392228 37.20399743 -78.78446695 12.80834872 -35.03051758 3.33618164 C-33.85199219 3.08094727 -32.6734668 2.82571289 -31.45922852 2.56274414 C-20.92747427 0.43021346 -10.72922263 -0.10197563 0 0 Z " fill="#122234" transform="translate(247.030517578125,79.663818359375)"/>
<path d="M0 0 C1.13985352 0.00644531 2.27970703 0.01289063 3.45410156 0.01953125 C23.36920644 0.44576273 39.38866003 7.59067678 54.5 20.5 C55.73169922 21.51513672 55.73169922 21.51513672 56.98828125 22.55078125 C68.49768452 32.38354915 80.79918086 48.75280816 82.87109375 64.28125 C83.07246061 72.52544633 83.07246061 72.52544633 80.125 76.125 C76.36591404 79.52607778 74.65322345 79.62676768 69.67448425 79.64044189 C68.43366592 79.64615204 67.1928476 79.65186218 65.91442871 79.65774536 C64.53173838 79.65899078 63.14904794 79.66011586 61.76635742 79.66113281 C60.31606418 79.66576008 58.86577216 79.67078462 57.41548157 79.67617798 C53.46910961 79.68931356 49.52275468 79.69574929 45.57636428 79.70018864 C43.11157422 79.70311774 40.64678883 79.70722226 38.18200111 79.71169281 C30.47249631 79.72537133 22.76300215 79.73503602 15.05348605 79.7388947 C6.14995944 79.74337526 -2.75341363 79.7609215 -11.65689355 79.7898953 C-18.53593919 79.811505 -25.41494161 79.82159861 -32.29402083 79.82293582 C-36.40390176 79.82398444 -40.51363843 79.82990422 -44.62348366 79.84775543 C-48.49027745 79.86422369 -52.35681837 79.86639779 -56.22363472 79.85761642 C-57.64220608 79.85684535 -59.06079097 79.86119806 -60.47932816 79.87107468 C-62.41735529 79.88377587 -64.35548382 79.8761323 -66.29353333 79.86749268 C-67.37772962 79.86895924 -68.46192591 79.8704258 -69.57897663 79.8719368 C-72.91835849 79.44673 -74.79372084 78.46735339 -77.5 76.5 C-80.59607536 72.00599971 -80.05604787 66.72142512 -79.5 61.5 C-78.49370481 57.6719286 -77.09296187 54.11885414 -75.5 50.5 C-75.22285156 49.82453125 -74.94570312 49.1490625 -74.66015625 48.453125 C-71.67574924 41.79665959 -66.97748246 36.2014856 -62.5 30.5 C-62.00628906 29.83742187 -61.51257813 29.17484375 -61.00390625 28.4921875 C-56.47652564 22.71541106 -50.43669446 18.71736607 -44.5 14.5 C-43.35144531 13.64341797 -43.35144531 13.64341797 -42.1796875 12.76953125 C-36.11406508 8.41616018 -29.55056401 5.86590832 -22.5 3.5 C-21.41211182 3.10723877 -21.41211182 3.10723877 -20.30224609 2.70654297 C-13.49624496 0.41144839 -7.15423872 -0.04247099 0 0 Z " fill="#F8FAFB" transform="translate(248.5,194.5)"/>
<path d="M0 0 C1.0091748 0.3079248 2.01834961 0.61584961 3.05810547 0.93310547 C9.48676749 2.97891285 15.43901883 5.42546857 21.375 8.625 C22.18445068 9.0573999 22.99390137 9.4897998 23.82788086 9.93530273 C35.35984318 16.23012154 45.5159582 23.89776343 55 33 C55.89332031 33.83015625 56.78664063 34.6603125 57.70703125 35.515625 C67.24125166 44.63647361 83.78152091 62.28385488 85.203125 75.953125 C85.3072418 81.05484828 84.97403 84.64517036 82 89 C79.02300462 90.87273028 76.55626207 91.34598389 73.0625 91.4375 C72.22847656 91.47746094 71.39445313 91.51742187 70.53515625 91.55859375 C66.80032631 90.73566512 65.41918832 88.91473174 63 86 C61.630727 83.63315286 60.38615621 81.32137108 59.1875 78.875 C47.84212031 56.8564999 30.38513852 42.80053836 9 31 C8.20851563 30.49210937 7.41703125 29.98421875 6.6015625 29.4609375 C-15.14706733 17.24774297 -45.36431462 15.59416972 -69 21.875 C-70.3334775 22.24948704 -71.66681971 22.62445626 -73 23 C-74.134375 23.28875 -75.26875 23.5775 -76.4375 23.875 C-102.16367803 30.93708809 -126.43004827 49.03344726 -140 72 C-140.7928915 73.4177154 -141.58040361 74.8384491 -142.36328125 76.26171875 C-142.76232666 76.98625244 -143.16137207 77.71078613 -143.57250977 78.45727539 C-144.33765197 79.86587949 -145.08778914 81.28277556 -145.82006836 82.70874023 C-147.97919726 86.77086459 -149.71798918 89.19393716 -154 91 C-157.4320437 91.69177131 -160.56852102 91.71559578 -164 91 C-166.86201589 88.87782495 -168.41215277 86.17569445 -170 83 C-170.44410431 77.0236249 -169.64739388 73.10568449 -166.625 67.875 C-166.26486816 67.23175781 -165.90473633 66.58851563 -165.53369141 65.92578125 C-146.55502118 32.78404529 -115.74849154 8.39565195 -79 -2 C-78.35562988 -2.19609863 -77.71125977 -2.39219727 -77.04736328 -2.59423828 C-52.29537811 -9.93994997 -24.3309106 -7.48354128 0 0 Z " fill="#112234" transform="translate(292,131)"/>
<path d="M0 0 C0.75527859 -0.00088371 1.51055717 -0.00176743 2.28872299 -0.00267792 C26.74096169 -0.02782557 51.13546081 0.52206689 75.5625 1.625 C76.27748154 1.65673813 76.99246307 1.68847626 77.72911072 1.72117615 C93.62223851 2.42810951 109.45422268 3.29761435 125.25 5.25 C125.58 6.57 125.91 7.89 126.25 9.25 C120.17303618 11.1490512 114.21542753 11.62208501 107.88671875 11.90795898 C104.09849044 12.05739839 104.09849044 12.05739839 100.38452148 12.74780273 C97.72724502 13.37299062 95.2169183 13.44949308 92.48828125 13.53125 C91.36873047 13.56863281 90.24917969 13.60601562 89.09570312 13.64453125 C87.92974609 13.67933594 86.76378906 13.71414063 85.5625 13.75 C83.26682665 13.81968317 80.97124723 13.89254106 78.67578125 13.96875 C77.65911377 13.99904297 76.64244629 14.02933594 75.5949707 14.06054688 C73.04109524 14.20519379 70.56103056 14.43123594 68.02514648 14.73291016 C47.93379494 17.05098638 27.39569893 16.40999506 7.1953125 16.38037109 C3.29560267 16.37469437 -0.60403858 16.37805538 -4.50374603 16.38380814 C-19.61912094 16.40273578 -34.72023876 16.31491566 -49.828125 15.8046875 C-51.55515656 15.74657394 -51.55515656 15.74657394 -53.31707764 15.68728638 C-59.30924023 15.45907652 -65.25518943 15.06374017 -71.22332764 14.48440552 C-74.91535636 14.14188707 -78.60992312 13.93853533 -82.3125 13.75 C-83.06990479 13.70939453 -83.82730957 13.66878906 -84.60766602 13.62695312 C-86.98834619 13.49936849 -89.36914813 13.37433661 -91.75 13.25 C-119.66571754 11.79214123 -119.66571754 11.79214123 -122.75 10.25 C-122.75 9.59 -122.75 8.93 -122.75 8.25 C-123.41 7.92 -124.07 7.59 -124.75 7.25 C-112.9754527 2.91200889 -101.01798838 2.69125325 -88.625 2.1875 C-86.86976213 2.10938477 -85.11455342 2.03061164 -83.359375 1.95117188 C-77.49051627 1.69140688 -71.62060599 1.46631187 -65.75 1.25 C-64.56470703 1.20582947 -63.37941406 1.16165894 -62.15820312 1.1161499 C-41.43757 0.36043187 -20.73401706 0.01123272 0 0 Z " fill="#BED1DF" transform="translate(249.75,441.75)"/>
<path d="M0 0 C11.55 0 23.1 0 35 0 C35.16121838 6.26448557 35.3003803 12.5217092 35.38452148 18.78662109 C35.41960846 20.91479952 35.46729229 23.04281061 35.52807617 25.17041016 C35.61351498 28.23902752 35.65280577 31.30540553 35.68359375 34.375 C35.71972275 35.31802979 35.75585175 36.26105957 35.79307556 37.23266602 C35.79685273 43.6646363 34.26963902 46.84586236 29.75860596 51.43203735 C24.67507862 55.96448019 20.71517641 56.71188858 14.015625 56.546875 C9.0341185 55.64349299 6.02473349 52.95037482 3 49 C-0.39318954 43.62448444 -0.39759732 39.15425597 -0.29296875 33.0078125 C-0.28872391 32.06187225 -0.28447906 31.11593201 -0.28010559 30.1413269 C-0.26338306 27.13558867 -0.22574263 24.1305338 -0.1875 21.125 C-0.17244486 19.08073889 -0.15875791 17.03646721 -0.14648438 14.9921875 C-0.11605904 9.99431992 -0.05732534 4.99792017 0 0 Z " fill="#FAFCFC" transform="translate(232,295)"/>
<path d="M0 0 C15.85721381 8.9143256 26.7501691 25.40516104 33.19921875 42.10546875 C34.60547444 47.18856857 35.47841478 53.17507362 32.94921875 58.0078125 C31.19804843 60.14640988 29.48070287 61.75964857 27 63 C25.1136088 63.084915 23.22421485 63.107193 21.3359375 63.09765625 C20.21445312 63.09443359 19.09296875 63.09121094 17.9375 63.08789062 C16.761875 63.07951172 15.58625 63.07113281 14.375 63.0625 C13.19164062 63.05798828 12.00828125 63.05347656 10.7890625 63.04882812 C7.85932493 63.03701467 4.92968728 63.02054258 2 63 C2.42152344 61.91460937 2.84304688 60.82921875 3.27734375 59.7109375 C3.83102409 58.26573796 4.38439305 56.82041909 4.9375 55.375 C5.35418945 54.30572266 5.35418945 54.30572266 5.77929688 53.21484375 C10.87313288 39.8358528 10.75980848 25.17137384 5.37890625 11.94140625 C3.76014547 8.48835564 1.99361255 5.24885009 0 2 C0 1.34 0 0.68 0 0 Z " fill="#8FA7BD" transform="translate(297,211)"/>
<path d="M0 0 C11.55 0 23.1 0 35 0 C35.16121838 6.26448557 35.3003803 12.5217092 35.38452148 18.78662109 C35.41960846 20.91479952 35.46729229 23.04281061 35.52807617 25.17041016 C35.61351498 28.23902752 35.65280577 31.30540553 35.68359375 34.375 C35.71972275 35.31802979 35.75585175 36.26105957 35.79307556 37.23266602 C35.79685324 43.66551381 34.26984224 46.84492505 29.7555542 51.42936707 C25.39182724 55.33344094 22.55777308 56.38102549 16.6875 56.1875 C15.08455078 56.14689453 15.08455078 56.14689453 13.44921875 56.10546875 C12.64097656 56.07066406 11.83273438 56.03585937 11 56 C11 55.67 11 55.34 11 55 C12.010625 54.835 13.02125 54.67 14.0625 54.5 C19.12000948 53.07854112 22.15826369 49.25457697 25 45 C26.20409656 41.39860478 26.20448119 37.8203485 26.31640625 34.046875 C26.33718735 33.38665344 26.35796844 32.72643188 26.37937927 32.04620361 C26.44450147 29.94756985 26.50358502 27.84881628 26.5625 25.75 C26.60572079 24.32290453 26.6493362 22.89582095 26.69335938 21.46875 C26.80088351 17.97928741 26.90023285 14.48972743 27 11 C18.42 11 9.84 11 1 11 C1 21.56 1 32.12 1 43 C0.67 43 0.34 43 0 43 C0 28.81 0 14.62 0 0 Z " fill="#94AAC0" transform="translate(232,295)"/>
<path d="M0 0 C0.66 0.33 1.32 0.66 2 1 C1.38125 1.226875 0.7625 1.45375 0.125 1.6875 C-2.66091233 3.40821056 -2.87219098 4.96901327 -4 8 C-4.598125 8.72960937 -5.19625 9.45921875 -5.8125 10.2109375 C-17.95776528 25.69615073 -20.79433234 43.93602382 -20 63 C-26.703125 62.2421875 -26.703125 62.2421875 -29.375 60.0625 C-33.00819426 55.45113805 -32.52523008 50.66960694 -32 45 C-31.00099966 41.16963599 -29.59303371 37.61901735 -28 34 C-27.72285156 33.32453125 -27.44570312 32.6490625 -27.16015625 31.953125 C-24.17677512 25.29894772 -19.48319121 19.69443936 -15 14 C-14.20722656 12.97132813 -14.20722656 12.97132813 -13.3984375 11.921875 C-9.55499392 7.15514609 -4.92637368 3.60172653 0 0 Z " fill="#8DA4B7" transform="translate(201,211)"/>
<path d="M0 0 C3.75824621 1.87912311 6.30528295 4.19960652 7.83203125 8.15625 C8.62045333 12.45941349 8.25896631 15.27923262 5.8125 18.9375 C2.42271261 22.93856052 0.35103833 23.84988463 -4.9375 24.4375 C-8.46601784 24.36522124 -8.9535429 24.03837761 -11.875 21.625 C-12.926875 20.325625 -12.926875 20.325625 -14 19 C-14.66 18.34 -15.32 17.68 -16 17 C-16.83939819 13.03707198 -16.84553124 9.40316688 -14.7265625 5.88671875 C-10.43749821 0.83399179 -6.854904 -1.25755433 0 0 Z " fill="#172738" transform="translate(289,235)"/>
<path d="M0 0 C3.3258409 2.062783 6.23502468 4.47004936 8 8 C8.39767092 12.13577752 8.24785009 14.50429983 6.375 18.25 C3.3322787 21.77315098 0.7697957 23.77145104 -3.98828125 24.1640625 C-7.07050537 24.0131438 -9.19256777 23.68412977 -11.5859375 21.65625 C-14.29960211 18.45632179 -15.87032251 15.94479314 -16.4375 11.8125 C-15.86024036 6.78209455 -13.65900216 4.35566519 -10 1 C-6.7374887 -0.63125565 -3.5120384 -0.68851113 0 0 Z " fill="#19293A" transform="translate(219,235)"/>
<path d="M0 0 C3.25 1.875 3.25 1.875 5 5 C5.82393906 9.19650319 6.0313066 13.11179895 3.9375 16.9453125 C2.18782867 19.10115753 0.49396093 20.75301954 -2 22 C-6.47609215 22.25336371 -10.07217718 22.29122998 -14 20 C-17.40638658 16.2412286 -17.59445902 12.26026951 -17.390625 7.3828125 C-17 5 -17 5 -15.25 1.875 C-10.2637893 -1.00166002 -5.61125246 -0.93004184 0 0 Z " fill="#152536" transform="translate(256,212)"/>
<path d="M0 0 C3.35694984 2.48122379 4.78441871 3.94365169 5.625 8.0625 C5 11 5 11 2.9375 13.375 C-0.75423679 15.41723737 -2.84132993 15.68050965 -7 15 C-9.95156784 12.4268383 -10.85637189 10.78197528 -11.5625 6.9375 C-11 4 -11 4 -8.875 1.625 C-5.46418575 -0.30285153 -3.85187398 -0.72222637 0 0 Z " fill="#172736" transform="translate(253,248)"/>
<path d="M0 0 C0.33 0 0.66 0 1 0 C2.20532091 17.90762497 2.20532091 17.90762497 -2.1875 22.9375 C-3.98046875 24.58984375 -3.98046875 24.58984375 -6 26 C-6.7734375 26.55429687 -7.546875 27.10859375 -8.34375 27.6796875 C-11.55609871 29.27641377 -13.74713906 29.30503937 -17.3125 29.1875 C-18.38113281 29.16042969 -19.44976562 29.13335937 -20.55078125 29.10546875 C-21.35902344 29.07066406 -22.16726562 29.03585937 -23 29 C-23 28.67 -23 28.34 -23 28 C-21.989375 27.835 -20.97875 27.67 -19.9375 27.5 C-14.82378925 26.08357503 -12.04489558 22.12867197 -9 18 C-8.67 17.34 -8.34 16.68 -8 16 C-7.01 16 -6.02 16 -5 16 C-4.67 15.34 -4.34 14.68 -4 14 C-2.68 14 -1.36 14 0 14 C0 9.38 0 4.76 0 0 Z " fill="#92A7BA" transform="translate(266,322)"/>
<path d="M0 0 C0.66 0.33 1.32 0.66 2 1 C1.38125 1.226875 0.7625 1.45375 0.125 1.6875 C-2.66091233 3.40821056 -2.87219098 4.96901327 -4 8 C-5.33333333 9.66666667 -6.66666667 11.33333333 -8 13 C-9.55114492 15.60966902 -11.05649356 18.23922984 -12.53515625 20.890625 C-14 23 -14 23 -17 24 C-17.99 23.34 -18.98 22.68 -20 22 C-15.9654072 13.07619622 -7.46221713 6.07389767 0 0 Z " fill="#7C97AC" transform="translate(201,211)"/>
<path d="M0 0 C4.875 2.875 4.875 2.875 6 4 C6.04063832 5.66617115 6.042721 7.33388095 6 9 C6.99 9.33 7.98 9.66 9 10 C9 13 9 13 8 16 C6 15 6 15 5.25390625 13.328125 C5.02574219 12.64234375 4.79757812 11.9565625 4.5625 11.25 C3.37964333 7.88247947 1.87930632 5.04268642 0 2 C0 1.34 0 0.68 0 0 Z " fill="#96AABA" transform="translate(297,211)"/>
<path d="M0 0 C0.33 0 0.66 0 1 0 C1.05379226 2.95857409 1.09357093 5.91617721 1.125 8.875 C1.14175781 9.71675781 1.15851563 10.55851562 1.17578125 11.42578125 C1.18222656 12.23144531 1.18867188 13.03710938 1.1953125 13.8671875 C1.20578613 14.61081543 1.21625977 15.35444336 1.22705078 16.12060547 C1 18 1 18 -1 20 C-1 19.34 -1 18.68 -1 18 C-2.98 18.99 -2.98 18.99 -5 20 C-5.33 19.01 -5.66 18.02 -6 17 C-5.01 15.515 -5.01 15.515 -4 14 C-2.68 14 -1.36 14 0 14 C0 9.38 0 4.76 0 0 Z " fill="#859EB4" transform="translate(266,322)"/>
<path d="M0 0 C0.33 0.99 0.66 1.98 1 3 C1.66 3.33 2.32 3.66 3 4 C-0.80180386 6.68362626 -3.34379204 7.51735644 -8 7 C-8.66 6.34 -9.32 5.68 -10 5 C-9.360625 4.896875 -8.72125 4.79375 -8.0625 4.6875 C-7.381875 4.460625 -6.70125 4.23375 -6 4 C-5.67 3.01 -5.34 2.02 -5 1 C-3.68 1.33 -2.36 1.66 -1 2 C-0.67 1.34 -0.34 0.68 0 0 Z " fill="#273845" transform="translate(414,216)"/>
<path d="M0 0 C0.66 1.32 1.32 2.64 2 4 C2.66 4 3.32 4 4 4 C4.33 4.99 4.66 5.98 5 7 C4.34 7.66 3.68 8.32 3 9 C1.68 9 0.36 9 -1 9 C-1 8.01 -1 7.02 -1 6 C-1.66 6 -2.32 6 -3 6 C-2.625 3.5625 -2.625 3.5625 -2 1 C-1.34 0.67 -0.68 0.34 0 0 Z " fill="#0D1D32" transform="translate(243,219)"/>
<path d="M0 0 C0.99 0.33 1.98 0.66 3 1 C0.77017466 5.45965068 -1.79552251 7.40574793 -6 10 C-6.66 10.66 -7.32 11.32 -8 12 C-8 8.24111186 -7.049166 7.58681685 -4.5625 4.875 C-3.92441406 4.17117187 -3.28632812 3.46734375 -2.62890625 2.7421875 C-1.76410115 1.81724008 -0.89538137 0.89538137 0 0 Z " fill="#2B3741" transform="translate(125,129)"/>
<path d="M0 0 C0.66 0.33 1.32 0.66 2 1 C0.52861945 4.87909417 -1.45361125 6.01056241 -5 8 C-5.495 8.53625 -5.99 9.0725 -6.5 9.625 C-8.51536084 11.4724141 -10.33833049 11.64031493 -13 12 C-9.48451346 6.95604105 -4.88263123 3.62024153 0 0 Z " fill="#2C3944" transform="translate(144,113)"/>
<path d="M0 0 C0.66 0.33 1.32 0.66 2 1 C1.071875 1.3403125 1.071875 1.3403125 0.125 1.6875 C-2.64848291 3.40053356 -2.85683637 4.99919547 -4 8 C-6.125 10.3125 -6.125 10.3125 -8 12 C-8.99 11.67 -9.98 11.34 -11 11 C-9.52202738 7.32943063 -7.52384523 5.58914217 -4.375 3.25 C-3.55773437 2.63640625 -2.74046875 2.0228125 -1.8984375 1.390625 C-0.95871094 0.70226562 -0.95871094 0.70226562 0 0 Z " fill="#8097A4" transform="translate(201,211)"/>
<path d="M0 0 C0 4.38968456 -2.12805101 5.76905739 -5 9 C-4.34 9.33 -3.68 9.66 -3 10 C-3.763125 10.2475 -4.52625 10.495 -5.3125 10.75 C-8.26180029 12.12176758 -9.17431019 13.3918717 -11 16 C-11.66 16 -12.32 16 -13 16 C-11.43636055 12.34584258 -9.17824958 9.7880312 -6.5 6.875 C-5.7059375 6.00617188 -4.911875 5.13734375 -4.09375 4.2421875 C-2.75256247 2.80591578 -1.38954317 1.38954317 0 0 Z " fill="#D0D9DC" transform="translate(169,181)"/>
<path d="M0 0 C0.99 0.66 1.98 1.32 3 2 C1.35 4.97 -0.3 7.94 -2 11 C-2.66 9.68 -3.32 8.36 -4 7 C-3.06434658 4.35435928 -1.54985485 2.37036624 0 0 Z " fill="#8EA3B1" transform="translate(190,222)"/>
<path d="M0 0 C0.66 0.66 1.32 1.32 2 2 C1.67 2.66 1.34 3.32 1 4 C1.66 4.33 2.32 4.66 3 5 C2.01 5.99 1.02 6.98 0 8 C-0.99 7.34 -1.98 6.68 -3 6 C-3 4.68 -3 3.36 -3 2 C-2.01 1.34 -1.02 0.68 0 0 Z " fill="#162439" transform="translate(246,254)"/>
<path d="M0 0 C1.32 0.33 2.64 0.66 4 1 C3.34 3.31 2.68 5.62 2 8 C0.68 7.34 -0.64 6.68 -2 6 C-2 3 -2 3 0 0 Z " fill="#839DB4" transform="translate(180,233)"/>
<path d="M0 0 C0 0.33 0 0.66 0 1 C-3.3 1.66 -6.6 2.32 -10 3 C-9.67 3.66 -9.34 4.32 -9 5 C-10.32 5 -11.64 5 -13 5 C-12.67 3.68 -12.34 2.36 -12 1 C-8.0186217 -0.3271261 -4.14954773 -0.06915913 0 0 Z " fill="#DAE5EE" transform="translate(136,446)"/>
<path d="M0 0 C0.33 0 0.66 0 1 0 C1.25 2.8125 1.25 2.8125 1 6 C-1 7.875 -1 7.875 -3 9 C-3.33 7.35 -3.66 5.7 -4 4 C-3.01 3.67 -2.02 3.34 -1 3 C-0.67 2.01 -0.34 1.02 0 0 Z " fill="#2E3E49" transform="translate(257,253)"/>
<path d="M0 0 C0 0.33 0 0.66 0 1 C-2.31 1 -4.62 1 -7 1 C-6.67 1.99 -6.34 2.98 -6 4 C-7.65 4.66 -9.3 5.32 -11 6 C-10.625 3.5625 -10.625 3.5625 -10 1 C-6.78548731 -0.60725635 -3.56387464 -0.05748185 0 0 Z " fill="#404C57" transform="translate(289,235)"/>
<path d="M0 0 C1.98 0 3.96 0 6 0 C5.67 1.98 5.34 3.96 5 6 C3.2925002 4.71937515 1.62626404 3.38232443 0 2 C0 1.34 0 0.68 0 0 Z " fill="#233040" transform="translate(321,172)"/>
<path d="M0 0 C-0.33 0.66 -0.66 1.32 -1 2 C-1.66 2 -2.32 2 -3 2 C-3 2.66 -3 3.32 -3 4 C-3.99 4.33 -4.98 4.66 -6 5 C-6 4.34 -6 3.68 -6 3 C-6.66 2.67 -7.32 2.34 -8 2 C-4.77208445 -0.1519437 -3.71599191 -0.20086443 0 0 Z " fill="#293642" transform="translate(145,359)"/>
<path d="M0 0 C0 3.34419152 -0.47519394 4.06840321 -2.375 6.6875 C-2.81585938 7.31011719 -3.25671875 7.93273437 -3.7109375 8.57421875 C-4.13632813 9.04472656 -4.56171875 9.51523438 -5 10 C-5.66 10 -6.32 10 -7 10 C-5.33248852 6.05860922 -2.77289351 3.2107188 0 0 Z " fill="#D1DBDE" transform="translate(130,160)"/>
<path d="M0 0 C0.33 0 0.66 0 1 0 C1.433125 1.6396875 1.433125 1.6396875 1.875 3.3125 C2.81893204 7.04013845 2.81893204 7.04013845 5 10 C3.35 9.67 1.7 9.34 0 9 C-1.15941038 5.52176885 -0.70820884 3.54104422 0 0 Z " fill="#DFE6EA" transform="translate(241,253)"/>
<path d="M0 0 C2.72426311 2.35277269 3.8141763 4.62496331 5 8 C3.68 8 2.36 8 1 8 C0.67 5.36 0.34 2.72 0 0 Z " fill="#333D49" transform="translate(336,221)"/>
<path d="M0 0 C0.33 0.99 0.66 1.98 1 3 C1.99 3.33 2.98 3.66 4 4 C4 7 4 7 3 10 C2.34 9.67 1.68 9.34 1 9 C0.5859375 6.93359375 0.5859375 6.93359375 0.375 4.4375 C0.30023438 3.61121094 0.22546875 2.78492188 0.1484375 1.93359375 C0.09945313 1.29550781 0.05046875 0.65742188 0 0 Z " fill="#9CAFC2" transform="translate(302,217)"/>
<path d="M0 0 C-0.99 0 -1.98 0 -3 0 C-3.33 0.99 -3.66 1.98 -4 3 C-6.97 2.505 -6.97 2.505 -10 2 C-3.75 -1.125 -3.75 -1.125 0 0 Z " fill="#31404E" transform="translate(160,355)"/>
<path d="M0 0 C0.99 0 1.98 0 3 0 C3 0.99 3 1.98 3 3 C3.66 3 4.32 3 5 3 C5 4.32 5 5.64 5 7 C4.34 7 3.68 7 3 7 C0 2.61538462 0 2.61538462 0 0 Z " fill="#1F2C3B" transform="translate(239,225)"/>
<path d="M0 0 C1.5625 1.8125 1.5625 1.8125 3 4 C2.67 4.99 2.34 5.98 2 7 C1.67 6.34 1.34 5.68 1 5 C0.67 6.65 0.34 8.3 0 10 C-0.33 10 -0.66 10 -1 10 C-1.125 2.25 -1.125 2.25 0 0 Z " fill="#414C57" transform="translate(123,204)"/>
<path d="M0 0 C-1.39332574 3.36720387 -2.9789286 4.9859524 -6 7 C-5.6875 4.625 -5.6875 4.625 -5 2 C-2 0 -2 0 0 0 Z " fill="#22343E" transform="translate(143,145)"/>
<path d="M0 0 C1.65 0 3.3 0 5 0 C3.35 1.98 1.7 3.96 0 6 C-1.125 2.25 -1.125 2.25 0 0 Z " fill="#D7E0E5" transform="translate(128,122)"/>
<path d="M0 0 C3.3 0.99 6.6 1.98 10 3 C10 3.33 10 3.66 10 4 C3.49618902 4.36814024 3.49618902 4.36814024 1.0625 2.5625 C0 1 0 1 0 0 Z " fill="#27323C" transform="translate(298,86)"/>
<path d="M0 0 C2 1 2 1 3 3 C1.68 3.33 0.36 3.66 -1 4 C-1.33 5.65 -1.66 7.3 -2 9 C-2.33 9 -2.66 9 -3 9 C-3.36923077 3.46153846 -3.36923077 3.46153846 -1.5 1.125 C-1.005 0.75375 -0.51 0.3825 0 0 Z " fill="#48535C" transform="translate(245,249)"/>
<path d="M0 0 C0.66 0.99 1.32 1.98 2 3 C-0.75 7.875 -0.75 7.875 -3 9 C-2.01 6.03 -1.02 3.06 0 0 Z " fill="#3D4753" transform="translate(155,234)"/>
<path d="M0 0 C1.98 0.66 3.96 1.32 6 2 C3 4 3 4 -1 4 C-0.67 2.68 -0.34 1.36 0 0 Z " fill="#293B49" transform="translate(223,195)"/>
<path d="M0 0 C1.32 0 2.64 0 4 0 C3.67 0.99 3.34 1.98 3 3 C0.4375 4.1875 0.4375 4.1875 -2 5 C-1.125 1.125 -1.125 1.125 0 0 Z " fill="#1C2C37" transform="translate(186,164)"/>
</svg>
